<?xml version="1.0" encoding="UTF-8"?>
<!-- Created with Inkscape (http://www.inkscape.org/) -->
<svg width="562.88" height="562.88" version="1.1" viewBox="0 0 562.88 562.88" xmlns="http://www.w3.org/2000/svg" xmlns:cc="http://creativecommons.org/ns#" xmlns:dc="http://purl.org/dc/elements/1.1/" xmlns:rdf="http://www.w3.org/1999/02/22-rdf-syntax-ns#">
 <metadata>
  <rdf:RDF>
   <cc:Work rdf:about="">
    <dc:format>image/svg+xml</dc:format>
    <dc:type rdf:resource="http://purl.org/dc/dcmitype/StillImage"/>
    <dc:title/>
   </cc:Work>
  </rdf:RDF>
 </metadata>
 <path d="m0.74553 282.93v-281.44h562.88v562.88h-562.88z" fill="#fefefe" stroke-width=".32"/>
 <path d="m42.294 522.86c-6.3401-7.5535-11.297-15.626-13.355-21.749-2.0408-6.0714-2.4005-17.541-0.88128-28.102l0.36823-2.56 5.28-1.0638c9.6704-1.9483 26.934-5.8258 35.84-8.05 16.667-4.1623 24.21-6.3958 36.96-10.943 12.683-4.5236 29.45-10.332 47.84-16.572 17.828-6.0495 19.462-6.5812 19.635-6.3879 0.22073 0.24637 12.149 31.479 12.274 32.137 0.1052 0.55526-0.27271 0.75942-2.8539 1.5419-22.165 6.7189-56.312 18.61-69.563 24.224-14.384 6.0936-38.125 19.603-61.732 35.125-3.872 2.546-7.1932 4.6882-7.3804 4.7605-0.18722 0.0723-1.2814-0.98973-2.4315-2.36zm289.49-0.62304c-27.336-1.6454-52.292-9.8523-74.72-24.572-8.8556-5.8121-14.972-10.727-22.517-18.092-12.594-12.295-22.091-25.395-29.811-41.124-7.8446-15.982-12.65-32.394-14.71-50.24-0.70722-6.1257-0.98107-20.18-0.51441-26.4 1.7272-23.022 8.142-44.524 18.95-63.52l2.0028-3.52 0.13499-3.6128c0.29849-7.9883-1.6456-14.43-8.443-27.976-4.1397-8.2499-6.6617-14.131-8.5714-19.989-6.0276-18.49-6.9709-36.539-2.5922-49.6 0.46126-1.3758 2.4296-5.8855 4.374-10.022 5.5927-11.896 7.2496-16.308 8.1049-21.582 1.9094-11.772-1.6569-21.133-12.017-31.542-9.5714-9.6163-17.916-13.053-41.227-16.98-11.722-1.9747-14.595-2.6542-20.792-4.9177-6.603-2.4119-8.996-3.0534-12.211-3.2737-3.3188-0.22737-5.7921 0.33329-9.0802 2.0584-2.5715 1.3491-6.266 4.6769-8.0014 7.2072-1.1926 1.7388-2.4383 4.9062-2.4383 6.1995 0 3.0498-4.0096-4.1838-5.4334-9.8023-1.9639-7.7495-1.5499-14.053 1.4763-22.476 2.7276-7.5919 7.6962-14.332 12.629-17.131 5.1887-2.9443 13.987-4.7519 27.017-5.5504 6.3564-0.38954 8.0853-0.72516 13.111-2.5452 2.5349-0.91793 3.2634-1.0423 6.08-1.0381 1.76 0.0026 4.3428 0.18239 5.7394 0.39948 3.0527 0.47447 5.731 0.23772 9.4287-0.83347 5.0119-1.4519 7.0864-2.5882 14.272-7.8167 6.2746-4.5657 9.4864-6.2017 14.529-7.4 2.4568-0.58387 4.292-0.67993 17.151-0.8977 13.654-0.23123 14.599-0.2857 18.24-1.0509 5.2937-1.1126 8.4132-2.019 19.618-5.6999 11.54-3.7911 17.418-5.2934 22.665-5.7919 11.925-1.1331 19.934 3.3111 23.98 13.306 1.5518 3.8335 2.0836 6.762 2.2823 12.57 0.20282 5.9277-0.11067 8.6988-1.5113 13.359-1.6105 5.3587-1.4072 7.5759 2.0707 22.588 3.5072 15.138 3.538 15.317 3.4965 20.32-0.0725 8.7392-2.3579 14.749-12.02 31.611-8.554 14.927-10.974 22.585-11.371 35.989-0.10043 3.388-0.29396 6.16-0.43007 6.16-0.5632 0-3.7682 3.2678-4.1532 4.2346-0.22896 0.57499-0.45957 1.1016-0.51247 1.1702s-1.0111-0.73117-2.1294-1.7773c-2.7104-2.5355-4.0124-3.1512-6.6239-3.1327-4.1481 0.0294-7.1132 2.729-5.8179 5.297 0.6823 1.3528 1.813 1.9951 5.0178 2.8508 2.8419 0.75874 4.5276 1.8378 4.8447 3.1014 0.42107 1.6777 3e-3 1.8382-5.3583 2.0585-2.7095 0.11132-5.4472 0.36483-6.0839 0.56334-1.6316 0.5087-3.1799 1.6222-4.0628 2.9219-0.63551 0.93553-0.73604 1.4176-0.63233 3.0324 0.1014 1.5789 0.48294 2.6389 2.1476 5.9666 1.1133 2.2256 1.926 4.2056 1.8058 4.4-0.14334 0.23193-1.8345 0.35351-4.9196 0.35369-11.439 6.4e-4 -17.964 1.6875-23.901 6.1793-2.4207 1.8313-5.0926 4.547-4.8539 4.9333 0.1 0.16175 1.377 0.23639 2.8378 0.16587 2.195-0.10597 3.1282 0.0162 5.376 0.70375 7.7718 2.3772 11.023 2.863 13.87 2.0724 0.6765-0.18785 1.3005-0.27103 1.3867-0.18485 0.0862 0.0862-0.53932 0.87526-1.39 1.7535-2.0616 2.1284-3.316 2.4657-7.2546 1.9504-2.54-0.33232-3.1752-0.31417-4.6948 0.13414-2.3364 0.68928-3.6937 1.5659-4.3301 2.7966-1.0366 2.0045-0.11853 3.6795 3.4682 6.3281 2.1007 1.5512 2.9888 3.03 2.6442 4.403-0.12957 0.51625-1.0971 1.7063-2.2578 2.7772-2.2986 2.1206-3.0396 3.5979-3.0466 6.0735-8e-3 2.8568-0.40287 3.2538-5.3474 5.3774-2.7655 1.1877-3.9278 3.0206-3.9278 6.1938 0 2.2118 0.88621 4.6328 3.0538 8.3423 0.92557 1.584 2.0207 3.5782 2.4336 4.4315 0.73317 1.5152 0.77922 1.5477 1.9642 1.3888 0.66741-0.0895 1.4142-0.32935 1.6595-0.53296 0.24534-0.20361 0.75337-1.7192 1.129-3.3679l0.6829-2.9977 1.9548 1.2634c1.0751 0.6949 2.6854 1.4848 3.5785 1.7554 6.7436 2.0432 14.556-0.47068 17.003-5.4709 1.1787-2.4091 0.99215-4.0269-0.72736-6.3083-1.178-1.563-2.0117-2.8951-2.0117-3.2144 0-0.0743 1.476-0.21734 3.28-0.31788 7.5035-0.4182 11.752-3.6628 11.765-8.9856 7e-3 -2.8093 0.0817-2.8711 2.7818-2.3031 4.1488 0.87272 6.9497 2.3292 8.1197 4.2224 0.52962 0.85695 0.87315 1.077 1.6797 1.0761 2.2434-3e-3 4.3705-2.2749 4.3727-4.671 2e-3 -1.91-0.52507-3.1861-2.4554-5.9478-1.5897-2.2745-2.6634-4.2968-2.6634-5.0166 0-0.16352 1.188-0.28814 2.64-0.27694 2.0791 0.016 2.9963-0.13507 4.3173-0.71124 1.7639-0.76936 3.9227-2.8386 3.9227-3.76 0-1.0216 0.55044 0.0431 1.2686 2.4536 1.0362 3.4782 2.3456 5.8646 3.9208 7.1458 1.716 1.3957 6.1887 4.2749 13.211 8.5041 2.992 1.802 7.096 4.5702 9.12 6.1514 9.7961 7.653 14.901 10.166 22.001 10.833 1.8913 0.17746 5.1299 0.48019 7.1968 0.67273 5.8513 0.54506 10.783 1.6621 13.863 3.1402 1.4674 0.70409 5.1227 2.9554 8.1229 5.0029 3.0003 2.0475 6.4992 4.1991 7.7754 4.7812 1.2762 0.58213 5.2757 1.9373 8.8878 3.0115 12.337 3.669 18.901 6.0522 22.535 8.1813 2.4829 1.4551 7.5123 5.3777 10.756 8.3889 9.2038 8.5447 13.971 11.525 22.013 13.762 11.536 3.2086 14.692 4.4423 20.429 7.9861 1.9686 1.2161 5.054 3.0002 6.8566 3.9647 4.1465 2.2188 7.6685 5.4697 10.351 9.5546 1.049 1.5972 1.9444 2.8668 1.9898 2.8213 0.0454-0.0454-0.27913-1.5151-0.72121-3.2661-5.5534-21.995-15.726-41.849-30.488-59.504-3.1057-3.7142-13.454-14.062-17.168-17.168-24.509-20.493-53.844-32.273-85.92-34.503-11.922-0.82884-25.539 0.0959-37.781 2.5657-2.69 0.54271-5.2097 0.90672-5.5994 0.80892-0.38966-0.0978-1.185-0.7191-1.7674-1.3807l-1.059-1.2028 1.3178-0.0972c0.72482-0.0534 2.4972 0.12657 3.9386 0.4 3.3894 0.64297 3.9778 0.62839 6.5366-0.16194 3.5104-1.0842 5.7941-3.7425 5.003-5.8234-0.40625-1.0685-2.0865-2.3138-3.8088-2.8228-1.819-0.53756-1.3471-0.74315 3.1394-1.3679 14.568-2.0285 27.663-2.1904 41.043-0.5074 49.982 6.2869 93.434 36.966 115.88 81.815 7.9022 15.791 12.827 32.37 15.139 50.966 0.83049 6.6797 0.8303 26.283 0 32.96-3.1431 25.265-11.118 47.061-24.644 67.36-21.991 33-56.39 55.933-95.734 63.822-11.398 2.2857-26.1 3.3496-37.12 2.6863zm88.96-89.064c8.6621-2.2244 15.615-8.9355 18.404-17.764 1.0889-3.447 1.2414-9.3424 0.33952-13.12-3.5753-14.974-18.984-23.621-33.437-18.764-3.9833 1.3385-6.9639 3.2326-10.106 6.4221-2.8317 2.8744-4.3368 5.0913-5.6295 8.2917-1.4977 3.708-1.8809 5.7488-1.8719 9.9705 0.0102 4.8202 0.69069 7.5931 2.9396 11.978 1.2293 2.397 2.0478 3.4611 4.705 6.1165 3.4455 3.4432 6.0817 5.0886 10.427 6.5081 4.4334 1.4484 9.4963 1.5769 14.23 0.36125zm-195.92-348.83c4.8757-3.6622 6.9794-6.4643 7.6796-10.229 0.29204-1.5703 0.25588-1.9781-0.27106-3.0574-0.9409-1.9272-2.2301-2.4365-5.7559-2.274-2.2262 0.10258-3.3204 0.32285-4.6677 0.93965-6.2095 2.8428-7.1008 9.0503-2.0436 14.233 1.0817 1.1086 2.1765 2.0143 2.4329 2.0126 0.25643-0.0016 1.438-0.73301 2.6258-1.6251zm306.4 334.29c-1.1882-0.21516-2.258-0.48883-2.3774-0.60816-0.11933-0.11929 0.40761-3.8286 1.1709-8.2428 1.1163-6.455 1.3057-8.0767 0.96787-8.2854-0.49654-0.30688-7.6222-1.4598-7.7796-1.2588-0.0594 0.076-0.64918 3.3061-1.3106 7.1781-0.66137 3.872-1.2649 7.2676-1.341 7.5458-0.12618 0.46058-0.41687 0.45978-3.2542-9e-3l-3.1156-0.51478 0.10291-0.95095c0.0566-0.52304 0.64435-3.975 1.3062-7.671 0.66179-3.696 1.16-6.7755 1.1072-6.8432-0.0528-0.0678-2.3225-0.51376-5.0438-0.99107l-4.9477-0.86781-0.1569 0.67104c-0.0863 0.36909-0.77955 4.2445-1.5406 8.612l-1.3837 7.9409-0.96183-0.16902c-0.52899-0.093-1.9338-0.33315-3.1218-0.53379-1.6249-0.2744-2.16-0.49287-2.16-0.88179 0-0.46704 3.8595-22.875 3.9584-22.982 0.0879-0.095 37.329 6.506 37.464 6.6404 0.0781 0.0781-0.74714 5.214-1.8338 11.413l-1.9757 11.271-0.80628-0.0359c-0.44348-0.0198-1.7785-0.21193-2.9667-0.4271zm-29.36-45.457v-11.04h8.56c4.708-2.9e-4 13.204-0.0956 18.88-0.21171l10.32-0.21117v6.5034l-14.96 4e-3c-8.228 3e-3 -15.284 0.0912-15.68 0.19732l-0.72 0.19296v15.605h-6.4v-11.04zm-0.13859-16.205c-0.0801-0.2394-0.37914-1.6593-0.66458-3.1553s-0.58384-2.9489-0.66313-3.2286c-0.0986-0.34761 1.2461-1.6641 4.249-4.16 8.8278-7.3372 9.2497-7.8616 8.9455-11.119-0.10595-1.1348-0.24009-2.1107-0.29804-2.1686-0.058-0.058-3.4095 0.53805-7.4478 1.3245-4.0383 0.78643-7.5598 1.4304-7.8255 1.4309-0.35674 0-0.62512-0.76995-1.026-2.9463-0.29859-1.6211-0.49414-2.9961-0.43456-3.0557 0.19578-0.19581 37.14-7.3704 37.279-7.2397 0.22864 0.21494 2.8816 14.157 3.1006 16.294 0.52461 5.1206-1.4244 8.2434-6.3156 10.119-2.4334 0.93312-6.4418 1.1468-8.5262 0.4544-1.8784-0.62391-4.1451-2.4915-5.0394-4.1521-0.34141-0.63395-0.70547-1.1526-0.80906-1.1526-0.10355 0-0.50924 0.57107-0.90153 1.2691-0.97315 1.7315-3.0468 3.7496-7.4046 7.2063-5.7811 4.5856-6.0536 4.7732-6.2186 4.28zm25.477-13.771c1.8284-0.54778 3.1457-2.1809 3.1264-3.8759-0.017-1.5001-1.3622-8.7531-1.6828-9.0738-0.11232-0.11228-2.2242 0.19514-4.693 0.68317-3.7309 0.73751-4.4888 0.98221-4.4888 1.4493 0 0.75296 1.2004 6.5858 1.6449 7.9924 0.86854 2.7487 3.0193 3.7458 6.0933 2.8247zm-32.928-20.025c-0.11517-0.308-2.1124-5.24-4.4382-10.96-2.3258-5.72-4.1899-10.441-4.1424-10.491 0.0475-0.0503 7.9892-3.3046 17.648-7.2316 12.831-5.2169 17.626-7.0329 17.799-6.7419 0.45021 0.7558 8.5991 21.015 8.4948 21.12-0.16739 0.1674-5.4908 2.3854-5.7252 2.3854-0.11693 0-1.617-3.456-3.3335-7.68s-3.2445-7.68-3.3955-7.68-1.9193 0.65818-3.9295 1.4626l-3.6549 1.4626 5.9498 14.606-2.998 1.2116c-1.6489 0.66637-3.0456 1.15-3.1039 1.0746-0.0583-0.0753-1.3808-3.305-2.939-7.177-1.5582-3.872-2.8638-7.0836-2.9014-7.137-0.0936-0.13291-8.877 3.46-9.1996 3.7631-0.14221 0.13365 1.1898 3.8127 2.96 8.1756 1.7702 4.3629 3.2186 7.9682 3.2186 8.0118 0 0.0959-5.6939 2.3864-5.9323 2.3864-0.0923 0-0.26208-0.252-0.37724-0.56zm-14.004-30.677c-0.84192-1.5-1.4039-2.8379-1.2489-2.9731 0.57104-0.49819 32.392-18.59 32.698-18.59 0.29488 0 3.3727 5.1184 3.1884 5.3024-0.0859 0.0857-31.657 18.212-32.592 18.713-0.41482 0.22201-0.80935-0.25111-2.0448-2.4521zm-3.847-12.778c-6.5919-1.8053-11.981-7.3396-12.939-13.287-0.9577-5.9466 2.2753-12.589 8.5794-17.626 4.7907-3.8282 9.4959-5.7109 14.273-5.7109 5.6147 0 10.349 3.1284 13.064 8.6333 0.94474 1.9152 1.0227 2.3183 1.0227 5.2867 0 2.9699-0.0778 3.3714-1.0262 5.298-0.56441 1.1465-1.388 2.4244-1.8301 2.8398l-0.80394 0.75525-1.7978-1.4065c-0.98877-0.77359-2.0961-1.6404-2.4608-1.9263l-0.66304-0.51981 0.66167-1.0802c1.1293-1.8436 1.4606-3.6477 1.0128-5.5143-0.31338-1.3064-0.75795-2.0024-2.2001-3.4446-1.5165-1.5165-2.0945-1.8716-3.5909-2.2065-2.4183-0.54119-4.2361-0.21067-7.3139 1.3298-3.5091 1.7563-7.881 5.8902-9.3193 8.8118-1.4359 2.9167-1.5665 5.0062-0.45488 7.2782 1.3112 2.68 4.0094 4.7194 6.8438 5.1726 1.1527 0.18433 1.4492 0.0732 3.0694-1.15 0.98637-0.74471 1.7934-1.412 1.7934-1.4828 0-0.0708-0.93469-1.3135-2.0771-2.7616-1.1424-1.448-2.0784-2.7315-2.08-2.8522-4e-3 -0.3076 4.8018-4.2025 4.9735-4.0308 0.41929 0.41928 8.4212 10.638 8.3675 10.686-0.0351 0.0312-2.7152 2.1599-5.9557 4.7306-6.3423 5.0313-6.2268 4.9786-9.1482 4.1785zm-37.2-34.436c-1.1-0.88446-2-1.7488-2-1.9207s0.94813-1.5268 2.107-3.0108l2.1069-2.6983 1.3331 0.96978c0.73315 0.53337 1.8207 1.3739 2.4167 1.8679l1.0836 0.89812-2.1721 2.7726c-1.1947 1.5249-2.3303 2.7629-2.5236 2.751-0.19334-0.0119-1.2516-0.74524-2.3516-1.6297zm-9.1198-7.1332c-3.1835-1.7913-3.4395-2.0071-3.4351-2.8956 3e-3 -0.528 0.28564-4.9129 0.62896-9.7442 0.34336-4.8313 0.55834-8.8501 0.47776-8.9307-0.0806-0.0806-1.7402 0.478-3.688 1.2413-4.0135 1.5728-3.614 1.161-7.0366 7.2532l-2.3705 4.2196-2.165-1.1796c-1.1908-0.64876-2.4327-1.3956-2.7597-1.6596-0.56458-0.45566-0.11693-1.3172 8.8288-16.99l9.4235-16.51 2.6788 1.4701c1.4734 0.80853 2.6829 1.5884 2.6879 1.733 5e-3 0.14461-1.7909 3.4216-3.9909 7.2823-2.2 3.8606-4 7.0755-4 7.1441 0 0.0686 4.3243-1.7431 9.6096-4.0261l9.6096-4.1509 3.5092 1.9724c1.93 1.0848 3.5684 2.0684 3.6409 2.1856 0.0725 0.11728-3.7991 1.7802-8.6035 3.6954l-8.7353 3.4822-0.22358 8.836c-0.12298 4.8598-0.31885 10.787-0.43523 13.172l-0.21165 4.3356zm-138.48 0.95327c0-0.63715 0.54279-0.89504 1.1586-0.55044 0.52868 0.29586 0.42182 0.43907-0.59856 0.80221-0.36274 0.1291-0.56 0.0404-0.56-0.25177zm107.46-16.707-2.7846-1.1166 0.65878-1.6527c0.36231-0.90897 0.95136-2.4087 1.309-3.3327s0.8264-1.68 1.0418-1.68c0.3664 0 4.9503 1.8041 5.1881 2.0418 0.0974 0.0973-2.3346 6.5767-2.543 6.7753-0.047 0.0448-1.3385-0.42104-2.87-1.0352zm-15.455-5.2194c-2.5307-0.74317-2.871-0.92881-2.8061-1.5307 0.0406-0.37673 1.887-7.1121 4.103-14.968 2.2161-7.8554 3.9619-14.458 3.8796-14.672-0.0823-0.21439-1.8804-0.86921-3.9958-1.4551-2.1154-0.58593-4.0094-1.1662-4.2087-1.2894-0.25865-0.15985-0.11488-1.1008 0.5018-3.2839l0.86432-3.0599 1.4709 0.43088c0.80899 0.23698 6.1509 1.75 11.871 3.3622s10.445 2.9733 10.501 3.0245c0.11146 0.10327-1.4485 5.9334-1.6384 6.1233-0.0657 0.0656-2.0826-0.43541-4.4821-1.1134l-4.3628-1.2328-0.31485 0.99081c-0.17318 0.54494-2.0505 7.1828-4.1718 14.751-2.1213 7.568-3.9635 13.987-4.0937 14.264-0.20992 0.44706-0.56282 0.40838-3.1167-0.3416zm-20.16-4.3587c-1.408-0.21766-2.7133-0.40657-2.9006-0.41979-0.4432-0.0313 0.54016-7.2288 0.98541-7.2124 1.4176 0.0522 4.9278 0.57366 5.2652 0.7822 0.34496 0.2132 0.32368 0.88235-0.11827 3.72-0.29638 1.903-0.56877 3.4748-0.60531 3.4929-0.0365 0.0181-1.2184-0.14522-2.6264-0.36289zm-17.36-1.6414c-1.9277-0.0918-2.3209-0.20276-2.3253-0.65642-3e-3 -0.30029 0.30236-7.3567 0.67843-15.681 0.37606-8.3242 0.60534-15.213 0.5095-15.309-0.0959-0.0959-2.1938-0.25423-4.6622-0.35194l-4.4879-0.17767 0.1881-3.2332c0.10345-1.7782 0.20416-3.249 0.22377-3.2684 0.0982-0.097 24.594 1.1268 24.701 1.234 0.0688 0.0687 0.0329 1.5267-0.0796 3.24l-0.20461 3.115-9.0861-0.44174-0.19594 2.684c-0.10774 1.4762-0.44633 8.624-0.75245 15.884l-0.55654 13.2-0.8151-0.0636c-0.44832-0.035-1.8591-0.11328-3.1351-0.17402z" fill="#160a31" stroke-width=".32"/>
</svg>
